<?xml version="1.0" encoding="utf-8"?><!-- Uploaded to: SVG Repo, www.svgrepo.com, Generator: SVG Repo Mixer Tools -->
<svg version="1.1" id="Uploaded to svgrepo.com" xmlns="http://www.w3.org/2000/svg" xmlns:xlink="http://www.w3.org/1999/xlink" 
	 width="800px" height="800px" viewBox="0 0 32 32" xml:space="preserve">
<style type="text/css">
	.sharpcorners_een{fill:#111918;}
	.st0{fill:#111918;}
</style>
<path class="sharpcorners_een" d="M24.053,13H30v15H2V13h5.947C7.346,14.206,7,15.561,7,17c0,4.971,4.029,9,9,9c4.971,0,9-4.029,9-9
	C25,15.561,24.654,14.206,24.053,13z M22,6l-1-2H11l-1,2H2v6h6.518C10.132,9.589,12.88,8,16,8c3.12,0,5.868,1.589,7.482,4H30V6H22z
	 M8,17c0-4.411,3.589-8,8-8c4.411,0,8,3.589,8,8c0,4.411-3.589,8-8,8C11.589,25,8,21.411,8,17z M10,17c0,3.314,2.686,6,6,6
	s6-2.686,6-6s-2.686-6-6-6S10,13.686,10,17z"/>
</svg>